<svg width="40" height="40" viewBox="0 0 40 40" fill="none" xmlns="http://www.w3.org/2000/svg">
<rect x="0.5" y="0.5" width="39" height="39" rx="19.5" stroke="#6C2DFF"/>
<g clip-path="url(#clip0_3001_371)">
<path d="M19.3805 11.5647C19.3406 11.5779 19.2775 11.6344 19.2377 11.6842C19.168 11.7705 19.168 11.7938 19.168 13.1949V14.6193L19.2609 14.719C19.3174 14.782 19.3938 14.8285 19.4701 14.8385C19.573 14.8551 19.6096 14.8418 19.7025 14.7588L19.8154 14.6592V13.1916V11.724L19.7059 11.6277C19.5963 11.5315 19.5066 11.5115 19.3805 11.5647Z" fill="#6C2DFF"/>
<path d="M13.7296 13.905C13.6034 13.9614 13.5204 14.1241 13.5469 14.2702C13.5602 14.3466 13.8026 14.6056 14.5298 15.3393C15.061 15.8739 15.5458 16.3354 15.6089 16.3653C15.8878 16.4981 16.1634 16.2192 16.0305 15.937C15.9675 15.8009 14.055 13.8884 13.9819 13.8884C13.952 13.8884 13.9089 13.8817 13.8823 13.8718C13.8591 13.8651 13.7893 13.8784 13.7296 13.905Z" fill="#6C2DFF"/>
<path d="M25.0451 13.8784C24.9422 13.8983 23.043 15.7776 22.9699 15.937C22.8371 16.2192 23.1127 16.4981 23.3916 16.3653C23.4547 16.3354 23.9395 15.8739 24.4707 15.3393C25.1979 14.6056 25.4402 14.3466 25.4535 14.2702C25.4801 14.1175 25.3971 13.9614 25.2643 13.905C25.1979 13.8784 25.1414 13.8585 25.1381 13.8585C25.1315 13.8618 25.0916 13.8718 25.0451 13.8784Z" fill="#6C2DFF"/>
<path d="M17.4912 16.8936C16.6246 17.0895 15.9805 17.6771 15.7281 18.5039C15.7049 18.5869 15.4426 19.998 15.1504 21.6416C14.8582 23.2852 14.6092 24.6697 14.5992 24.7162C14.5826 24.8025 14.576 24.8059 14.2605 24.8191C13.8787 24.8357 13.6961 24.9055 13.4902 25.1113C13.2213 25.3803 13.208 25.44 13.208 26.4129V27.2695L13.301 27.3592L13.3906 27.4521L19.4834 27.4621L25.5762 27.4688L25.6824 27.3725L25.792 27.2762V26.4162C25.792 25.44 25.7787 25.3803 25.5098 25.1113C25.3039 24.9055 25.1213 24.8357 24.7395 24.8191C24.424 24.8059 24.4174 24.8025 24.4008 24.7162C24.3908 24.6697 24.1418 23.2852 23.8496 21.6416C23.5574 19.998 23.2885 18.557 23.2486 18.4375C23.0361 17.7602 22.4584 17.1957 21.7312 16.9467L21.4756 16.8604L19.583 16.8537C18.0855 16.8504 17.6473 16.857 17.4912 16.8936ZM21.4025 17.5576C21.9936 17.6805 22.485 18.1453 22.6377 18.7164C22.6676 18.8293 22.9266 20.2404 23.2154 21.8574L23.7367 24.7959L21.6184 24.8059C20.4529 24.8092 18.5471 24.8092 17.3816 24.8059L15.26 24.7959L15.7979 21.791C16.0934 20.1375 16.3623 18.7064 16.3922 18.6135C16.5615 18.1055 17.0496 17.6738 17.5875 17.5576C17.893 17.4912 21.0871 17.4912 21.4025 17.5576ZM25.035 25.5861L25.1279 25.6758L25.1379 26.2402L25.1479 26.8047H19.5H13.8521L13.8621 26.2436C13.8721 25.7389 13.8787 25.6758 13.9385 25.6094C13.975 25.5695 14.0348 25.523 14.0713 25.5064C14.1078 25.4932 16.5682 25.4832 19.5398 25.4865L24.9453 25.4932L25.035 25.5861Z" fill="#6C2DFF"/>
<path d="M21.7047 19.5334C21.5984 19.5766 21.4922 19.7293 21.4922 19.8356C21.4922 19.9684 21.6449 20.1277 21.7943 20.151C21.8973 20.1676 21.9338 20.1543 22.0268 20.0713C22.1197 19.9883 22.1396 19.9484 22.1396 19.8322C22.1396 19.716 22.1197 19.6762 22.0301 19.5965C21.9205 19.5002 21.8309 19.4803 21.7047 19.5334Z" fill="#6C2DFF"/>
<path d="M21.9703 20.8283C21.8674 20.8682 21.7578 21.0242 21.7578 21.1238C21.7578 21.3164 22.2525 23.9228 22.3057 24.0025C22.4717 24.2582 22.8867 24.1353 22.8867 23.8266C22.8867 23.6838 22.4285 21.1437 22.382 21.0142C22.3422 20.918 22.1795 20.7951 22.0898 20.7984C22.0633 20.7984 22.0068 20.8117 21.9703 20.8283Z" fill="#6C2DFF"/>
<path d="M11.2125 19.5328C11.1063 19.576 11 19.7287 11 19.835C11 19.8947 11.0365 19.9711 11.0963 20.0375L11.1926 20.1471L12.7432 20.157L14.2904 20.167L14.4066 20.0508C14.5594 19.898 14.5594 19.7652 14.4066 19.6125L14.2938 19.4996L12.7863 19.5029C11.9596 19.5029 11.249 19.5162 11.2125 19.5328Z" fill="#6C2DFF"/>
<path d="M24.693 19.5328C24.5867 19.576 24.4805 19.7287 24.4805 19.835C24.4805 19.8947 24.517 19.9711 24.5768 20.0375L24.673 20.1471L26.2203 20.157L27.7643 20.167L27.8738 20.0674C27.9635 19.9877 27.9834 19.9479 27.9834 19.8316C27.9834 19.7154 27.9635 19.6756 27.8738 19.5959L27.7676 19.4996L26.2635 19.5029C25.44 19.5029 24.7295 19.5162 24.693 19.5328Z" fill="#6C2DFF"/>
</g>
<defs>
<clipPath id="clip0_3001_371">
<rect width="17" height="17" fill="white" transform="translate(11 11)"/>
</clipPath>
</defs>
</svg>