
                        <svg width="576" height="198" viewBox="0 0 576 198" fill="none" xmlns="http://www.w3.org/2000/svg" class="block h-16 w-auto fill-current text-gray-600">
    <path d="M25.452 188H29.764L33.964 172.376H39.928L40.992 168.4H24.752L23.688 172.376H29.652L25.452 188ZM38.2793 188H42.5353L43.9633 182.68C44.4859 180.72 45.2699 179.311 46.3153 178.452C47.3606 177.593 48.5926 177.164 50.0113 177.164H50.2353L51.4393 172.712C50.2073 172.619 49.1339 172.871 48.2193 173.468C47.3233 174.047 46.4926 174.896 45.7273 176.016L46.5393 172.992H42.2833L38.2793 188ZM55.6658 188.28C56.5058 188.28 57.2618 188.093 57.9338 187.72C58.6058 187.347 59.2124 186.917 59.7538 186.432L59.3338 188H63.5898L67.5938 172.992H63.3378L61.0698 181.42C60.8271 182.316 60.4351 183.044 59.8938 183.604C59.3524 184.145 58.6618 184.416 57.8218 184.416C57.1684 184.416 56.6551 184.257 56.2818 183.94C55.9271 183.623 55.7498 183.165 55.7498 182.568C55.7498 182.381 55.7684 182.167 55.8058 181.924C55.8431 181.663 55.8898 181.429 55.9458 181.224L58.1578 172.992H53.9018L51.7458 181.056C51.6151 181.541 51.4938 182.036 51.3818 182.54C51.2884 183.025 51.2418 183.483 51.2418 183.912C51.2418 185.275 51.6431 186.348 52.4458 187.132C53.2484 187.897 54.3218 188.28 55.6658 188.28ZM73.5877 188.336C74.4837 188.336 75.3051 188.215 76.0517 187.972C76.8171 187.729 77.4704 187.384 78.0117 186.936C78.5531 186.469 78.9731 185.909 79.2717 185.256C79.5891 184.603 79.7477 183.865 79.7477 183.044C79.7477 182.465 79.6264 181.961 79.3837 181.532C79.1411 181.084 78.8237 180.692 78.4317 180.356C78.0397 180.02 77.5917 179.731 77.0877 179.488C76.6024 179.245 76.1171 179.012 75.6317 178.788C74.9971 178.508 74.5024 178.256 74.1477 178.032C73.8117 177.789 73.6437 177.519 73.6437 177.22C73.6437 176.828 73.7837 176.52 74.0637 176.296C74.3624 176.072 74.7731 175.96 75.2957 175.96C75.9117 175.96 76.5371 176.081 77.1717 176.324C77.8064 176.567 78.4877 176.977 79.2157 177.556L81.5117 174.868C81.1944 174.588 80.8211 174.327 80.3917 174.084C79.9811 173.823 79.5144 173.589 78.9917 173.384C78.4877 173.179 77.9464 173.02 77.3677 172.908C76.8077 172.777 76.2197 172.712 75.6037 172.712C74.6704 172.712 73.8304 172.852 73.0837 173.132C72.3371 173.393 71.7024 173.757 71.1797 174.224C70.6757 174.691 70.2837 175.251 70.0037 175.904C69.7237 176.539 69.5837 177.229 69.5837 177.976C69.5837 178.573 69.6957 179.096 69.9197 179.544C70.1624 179.973 70.4797 180.356 70.8717 180.692C71.2824 181.028 71.7491 181.336 72.2717 181.616C72.7944 181.877 73.3544 182.129 73.9517 182.372C74.4744 182.596 74.8944 182.82 75.2117 183.044C75.5291 183.249 75.6877 183.492 75.6877 183.772C75.6877 184.201 75.5291 184.528 75.2117 184.752C74.8944 184.976 74.4557 185.088 73.8957 185.088C73.2237 185.088 72.4864 184.948 71.6837 184.668C70.8811 184.388 70.0877 183.856 69.3037 183.072L66.8397 185.62C67.2877 186.087 67.7824 186.488 68.3237 186.824C68.8651 187.16 69.4251 187.44 70.0037 187.664C70.6011 187.888 71.2077 188.056 71.8237 188.168C72.4397 188.28 73.0277 188.336 73.5877 188.336ZM86.8877 188.252C88.0637 188.252 89.0904 188.047 89.9677 187.636L90.9477 184.024C90.5931 184.173 90.2197 184.295 89.8277 184.388C89.4544 184.463 89.0997 184.5 88.7637 184.5C87.9984 184.5 87.6157 184.201 87.6157 183.604C87.6157 183.511 87.6251 183.408 87.6437 183.296C87.6624 183.165 87.6904 183.044 87.7277 182.932L89.4077 176.632H92.9357L93.9157 172.992H90.3877L91.4237 169.156H87.1677L86.1317 172.992H84.3397L83.3597 176.632H85.1517L83.3317 183.436C83.2384 183.772 83.1637 184.089 83.1077 184.388C83.0704 184.687 83.0517 184.995 83.0517 185.312C83.0517 186.152 83.3691 186.852 84.0037 187.412C84.6384 187.972 85.5997 188.252 86.8877 188.252ZM98.2848 181.98H108.561C108.803 181.401 108.99 180.823 109.121 180.244C109.251 179.665 109.317 179.105 109.317 178.564C109.317 177.724 109.177 176.949 108.897 176.24C108.635 175.531 108.243 174.915 107.721 174.392C107.198 173.869 106.554 173.459 105.789 173.16C105.023 172.861 104.155 172.712 103.185 172.712C101.841 172.712 100.618 172.973 99.5168 173.496C98.4341 174.019 97.5008 174.709 96.7168 175.568C95.9328 176.408 95.3261 177.369 94.8968 178.452C94.4861 179.516 94.2808 180.589 94.2808 181.672C94.2808 182.717 94.4395 183.651 94.7568 184.472C95.0741 185.293 95.5315 185.993 96.1288 186.572C96.7261 187.132 97.4541 187.571 98.3128 187.888C99.1715 188.187 100.142 188.336 101.225 188.336C102.513 188.336 103.623 188.149 104.557 187.776C105.509 187.384 106.321 186.908 106.993 186.348L105.033 183.716C104.417 184.145 103.847 184.453 103.325 184.64C102.802 184.827 102.261 184.92 101.701 184.92C100.581 184.92 99.7501 184.659 99.2088 184.136C98.6675 183.595 98.3595 182.876 98.2848 181.98ZM98.6488 179.32C99.0035 178.368 99.5448 177.603 100.273 177.024C101.019 176.427 101.878 176.128 102.849 176.128C103.726 176.128 104.351 176.343 104.725 176.772C105.117 177.201 105.313 177.724 105.313 178.34C105.313 178.676 105.266 179.003 105.173 179.32H98.6488ZM117.029 188.28C117.869 188.28 118.615 188.112 119.269 187.776C119.941 187.44 120.603 186.973 121.257 186.376L120.809 188H125.065L130.525 167.56H126.269L124.253 175.176C123.767 174.429 123.151 173.832 122.405 173.384C121.677 172.936 120.725 172.712 119.549 172.712C118.485 172.712 117.458 172.936 116.469 173.384C115.479 173.832 114.593 174.467 113.809 175.288C113.043 176.091 112.427 177.052 111.961 178.172C111.494 179.292 111.261 180.515 111.261 181.84C111.261 182.848 111.401 183.753 111.681 184.556C111.979 185.359 112.39 186.04 112.913 186.6C113.435 187.141 114.042 187.561 114.733 187.86C115.442 188.14 116.207 188.28 117.029 188.28ZM118.793 184.696C117.841 184.696 117.075 184.425 116.497 183.884C115.937 183.324 115.657 182.549 115.657 181.56C115.657 180.813 115.778 180.123 116.021 179.488C116.282 178.835 116.618 178.275 117.029 177.808C117.439 177.323 117.906 176.949 118.429 176.688C118.97 176.427 119.53 176.296 120.109 176.296C121.061 176.296 121.835 176.595 122.433 177.192C123.03 177.771 123.329 178.536 123.329 179.488C123.329 180.197 123.198 180.869 122.937 181.504C122.694 182.139 122.358 182.699 121.929 183.184C121.518 183.651 121.033 184.024 120.473 184.304C119.931 184.565 119.371 184.696 118.793 184.696ZM137.738 188H142.05L144.178 180.132H152.018L149.89 188H154.202L159.466 168.4H155.154L153.082 176.156H145.242L147.314 168.4H143.002L137.738 188ZM163.718 181.98H173.994C174.237 181.401 174.424 180.823 174.554 180.244C174.685 179.665 174.75 179.105 174.75 178.564C174.75 177.724 174.61 176.949 174.33 176.24C174.069 175.531 173.677 174.915 173.154 174.392C172.632 173.869 171.988 173.459 171.222 173.16C170.457 172.861 169.589 172.712 168.618 172.712C167.274 172.712 166.052 172.973 164.95 173.496C163.868 174.019 162.934 174.709 162.15 175.568C161.366 176.408 160.76 177.369 160.33 178.452C159.92 179.516 159.714 180.589 159.714 181.672C159.714 182.717 159.873 183.651 160.19 184.472C160.508 185.293 160.965 185.993 161.562 186.572C162.16 187.132 162.888 187.571 163.746 187.888C164.605 188.187 165.576 188.336 166.658 188.336C167.946 188.336 169.057 188.149 169.99 187.776C170.942 187.384 171.754 186.908 172.426 186.348L170.466 183.716C169.85 184.145 169.281 184.453 168.758 184.64C168.236 184.827 167.694 184.92 167.134 184.92C166.014 184.92 165.184 184.659 164.642 184.136C164.101 183.595 163.793 182.876 163.718 181.98ZM164.082 179.32C164.437 178.368 164.978 177.603 165.706 177.024C166.453 176.427 167.312 176.128 168.282 176.128C169.16 176.128 169.785 176.343 170.158 176.772C170.55 177.201 170.746 177.724 170.746 178.34C170.746 178.676 170.7 179.003 170.606 179.32H164.082ZM180.138 188.28C181.034 188.28 181.856 188.112 182.602 187.776C183.349 187.421 184.021 186.917 184.618 186.264L184.17 188H188.286L190.498 179.712C190.592 179.339 190.666 178.965 190.722 178.592C190.797 178.219 190.834 177.836 190.834 177.444C190.834 175.969 190.33 174.831 189.322 174.028C188.314 173.225 186.793 172.824 184.758 172.824C183.694 172.824 182.696 172.927 181.762 173.132C180.829 173.319 179.97 173.571 179.186 173.888L179.858 177.248C180.4 177.024 181.016 176.837 181.706 176.688C182.416 176.52 183.134 176.436 183.862 176.436C184.926 176.436 185.664 176.604 186.074 176.94C186.485 177.257 186.69 177.677 186.69 178.2C186.69 178.424 186.672 178.629 186.634 178.816C186.597 178.984 186.56 179.152 186.522 179.32L186.466 179.516C185.832 179.311 185.169 179.152 184.478 179.04C183.806 178.909 183.06 178.844 182.238 178.844C181.324 178.844 180.474 178.965 179.69 179.208C178.906 179.432 178.225 179.777 177.646 180.244C177.068 180.711 176.61 181.28 176.274 181.952C175.938 182.624 175.77 183.389 175.77 184.248C175.77 184.845 175.873 185.387 176.078 185.872C176.302 186.357 176.601 186.787 176.974 187.16C177.366 187.515 177.824 187.795 178.346 188C178.888 188.187 179.485 188.28 180.138 188.28ZM181.958 185.368C181.361 185.368 180.885 185.219 180.53 184.92C180.176 184.621 179.998 184.239 179.998 183.772C179.998 183.044 180.278 182.475 180.838 182.064C181.417 181.635 182.154 181.42 183.05 181.42C183.573 181.42 184.077 181.476 184.562 181.588C185.048 181.681 185.477 181.803 185.85 181.952L185.738 182.344C185.626 182.755 185.449 183.147 185.206 183.52C184.964 183.875 184.674 184.192 184.338 184.472C184.002 184.752 183.629 184.976 183.218 185.144C182.826 185.293 182.406 185.368 181.958 185.368ZM192.119 188H196.375L201.863 167.56H197.607L192.119 188ZM205.86 188.252C207.036 188.252 208.063 188.047 208.94 187.636L209.92 184.024C209.566 184.173 209.192 184.295 208.8 184.388C208.427 184.463 208.072 184.5 207.736 184.5C206.971 184.5 206.588 184.201 206.588 183.604C206.588 183.511 206.598 183.408 206.616 183.296C206.635 183.165 206.663 183.044 206.7 182.932L208.38 176.632H211.908L212.888 172.992H209.36L210.396 169.156H206.14L205.104 172.992H203.312L202.332 176.632H204.124L202.304 183.436C202.211 183.772 202.136 184.089 202.08 184.388C202.043 184.687 202.024 184.995 202.024 185.312C202.024 186.152 202.342 186.852 202.976 187.412C203.611 187.972 204.572 188.252 205.86 188.252ZM212.021 188H216.277L218.545 179.572C218.788 178.676 219.18 177.957 219.721 177.416C220.263 176.856 220.953 176.576 221.793 176.576C222.447 176.576 222.951 176.735 223.305 177.052C223.679 177.369 223.865 177.827 223.865 178.424C223.865 178.611 223.847 178.835 223.809 179.096C223.772 179.339 223.725 179.563 223.669 179.768L221.457 188H225.713L227.869 179.936C228 179.451 228.112 178.965 228.205 178.48C228.317 177.976 228.373 177.509 228.373 177.08C228.373 175.717 227.972 174.653 227.169 173.888C226.367 173.104 225.293 172.712 223.949 172.712C223.109 172.712 222.353 172.899 221.681 173.272C221.009 173.645 220.403 174.075 219.861 174.56L221.709 167.56H217.453L212.021 188ZM238.254 188H242.566L244.162 182.064H247.886C249.23 182.064 250.481 181.896 251.638 181.56C252.795 181.224 253.794 180.729 254.634 180.076C255.493 179.423 256.165 178.62 256.65 177.668C257.154 176.716 257.406 175.633 257.406 174.42C257.406 172.74 256.902 171.396 255.894 170.388C255.185 169.679 254.326 169.175 253.318 168.876C252.329 168.559 251.134 168.4 249.734 168.4H243.518L238.254 188ZM245.17 178.284L246.766 172.292H249.566C250.219 172.292 250.751 172.367 251.162 172.516C251.591 172.647 251.955 172.861 252.254 173.16C252.683 173.589 252.898 174.131 252.898 174.784C252.898 175.904 252.459 176.772 251.582 177.388C250.705 177.985 249.547 178.284 248.11 178.284H245.17ZM261.486 188.28C262.382 188.28 263.203 188.112 263.95 187.776C264.697 187.421 265.369 186.917 265.966 186.264L265.518 188H269.634L271.846 179.712C271.939 179.339 272.014 178.965 272.07 178.592C272.145 178.219 272.182 177.836 272.182 177.444C272.182 175.969 271.678 174.831 270.67 174.028C269.662 173.225 268.141 172.824 266.106 172.824C265.042 172.824 264.043 172.927 263.11 173.132C262.177 173.319 261.318 173.571 260.534 173.888L261.206 177.248C261.747 177.024 262.363 176.837 263.054 176.688C263.763 176.52 264.482 176.436 265.21 176.436C266.274 176.436 267.011 176.604 267.422 176.94C267.833 177.257 268.038 177.677 268.038 178.2C268.038 178.424 268.019 178.629 267.982 178.816C267.945 178.984 267.907 179.152 267.87 179.32L267.814 179.516C267.179 179.311 266.517 179.152 265.826 179.04C265.154 178.909 264.407 178.844 263.586 178.844C262.671 178.844 261.822 178.965 261.038 179.208C260.254 179.432 259.573 179.777 258.994 180.244C258.415 180.711 257.958 181.28 257.622 181.952C257.286 182.624 257.118 183.389 257.118 184.248C257.118 184.845 257.221 185.387 257.426 185.872C257.65 186.357 257.949 186.787 258.322 187.16C258.714 187.515 259.171 187.795 259.694 188C260.235 188.187 260.833 188.28 261.486 188.28ZM263.306 185.368C262.709 185.368 262.233 185.219 261.878 184.92C261.523 184.621 261.346 184.239 261.346 183.772C261.346 183.044 261.626 182.475 262.186 182.064C262.765 181.635 263.502 181.42 264.398 181.42C264.921 181.42 265.425 181.476 265.91 181.588C266.395 181.681 266.825 181.803 267.198 181.952L267.086 182.344C266.974 182.755 266.797 183.147 266.554 183.52C266.311 183.875 266.022 184.192 265.686 184.472C265.35 184.752 264.977 184.976 264.566 185.144C264.174 185.293 263.754 185.368 263.306 185.368ZM273.299 188H277.555L278.983 182.68C279.505 180.72 280.289 179.311 281.335 178.452C282.38 177.593 283.612 177.164 285.031 177.164H285.255L286.459 172.712C285.227 172.619 284.153 172.871 283.239 173.468C282.343 174.047 281.512 174.896 280.747 176.016L281.559 172.992H277.303L273.299 188ZM290.489 188.252C291.665 188.252 292.692 188.047 293.569 187.636L294.549 184.024C294.195 184.173 293.821 184.295 293.429 184.388C293.056 184.463 292.701 184.5 292.365 184.5C291.6 184.5 291.217 184.201 291.217 183.604C291.217 183.511 291.227 183.408 291.245 183.296C291.264 183.165 291.292 183.044 291.329 182.932L293.009 176.632H296.537L297.517 172.992H293.989L295.025 169.156H290.769L289.733 172.992H287.941L286.961 176.632H288.753L286.933 183.436C286.84 183.772 286.765 184.089 286.709 184.388C286.672 184.687 286.653 184.995 286.653 185.312C286.653 186.152 286.971 186.852 287.605 187.412C288.24 187.972 289.201 188.252 290.489 188.252ZM296.65 188H300.906L303.174 179.572C303.417 178.676 303.809 177.957 304.35 177.416C304.892 176.856 305.582 176.576 306.422 176.576C307.076 176.576 307.58 176.735 307.934 177.052C308.308 177.369 308.494 177.827 308.494 178.424C308.494 178.611 308.476 178.835 308.438 179.096C308.401 179.339 308.354 179.563 308.298 179.768L306.086 188H310.342L312.498 179.936C312.629 179.451 312.741 178.965 312.834 178.48C312.946 177.976 313.002 177.509 313.002 177.08C313.002 175.717 312.601 174.653 311.798 173.888C310.996 173.104 309.922 172.712 308.578 172.712C307.738 172.712 306.982 172.899 306.31 173.272C305.638 173.645 305.032 174.075 304.49 174.56L304.91 172.992H300.654L296.65 188ZM319.222 181.98H329.498C329.741 181.401 329.928 180.823 330.058 180.244C330.189 179.665 330.254 179.105 330.254 178.564C330.254 177.724 330.114 176.949 329.834 176.24C329.573 175.531 329.181 174.915 328.658 174.392C328.136 173.869 327.492 173.459 326.726 173.16C325.961 172.861 325.093 172.712 324.122 172.712C322.778 172.712 321.556 172.973 320.454 173.496C319.372 174.019 318.438 174.709 317.654 175.568C316.87 176.408 316.264 177.369 315.834 178.452C315.424 179.516 315.218 180.589 315.218 181.672C315.218 182.717 315.377 183.651 315.694 184.472C316.012 185.293 316.469 185.993 317.066 186.572C317.664 187.132 318.392 187.571 319.25 187.888C320.109 188.187 321.08 188.336 322.162 188.336C323.45 188.336 324.561 188.149 325.494 187.776C326.446 187.384 327.258 186.908 327.93 186.348L325.97 183.716C325.354 184.145 324.785 184.453 324.262 184.64C323.74 184.827 323.198 184.92 322.638 184.92C321.518 184.92 320.688 184.659 320.146 184.136C319.605 183.595 319.297 182.876 319.222 181.98ZM319.586 179.32C319.941 178.368 320.482 177.603 321.21 177.024C321.957 176.427 322.816 176.128 323.786 176.128C324.664 176.128 325.289 176.343 325.662 176.772C326.054 177.201 326.25 177.724 326.25 178.34C326.25 178.676 326.204 179.003 326.11 179.32H319.586ZM330.994 188H335.25L336.678 182.68C337.201 180.72 337.985 179.311 339.03 178.452C340.075 177.593 341.307 177.164 342.726 177.164H342.95L344.154 172.712C342.922 172.619 341.849 172.871 340.934 173.468C340.038 174.047 339.207 174.896 338.442 176.016L339.254 172.992H334.998L330.994 188ZM359.463 188.28C360.49 188.28 361.47 188.14 362.403 187.86C363.355 187.561 364.186 187.132 364.895 186.572C365.604 186.012 366.174 185.331 366.603 184.528C367.032 183.707 367.247 182.783 367.247 181.756C367.247 181.047 367.126 180.421 366.883 179.88C366.64 179.339 366.304 178.863 365.875 178.452C365.464 178.041 364.97 177.677 364.391 177.36C363.831 177.043 363.215 176.744 362.543 176.464C361.871 176.184 361.311 175.941 360.863 175.736C360.434 175.531 360.088 175.335 359.827 175.148C359.566 174.961 359.379 174.775 359.267 174.588C359.155 174.383 359.099 174.149 359.099 173.888C359.099 173.403 359.342 172.955 359.827 172.544C360.331 172.115 361.04 171.9 361.955 171.9C362.907 171.9 363.738 172.077 364.447 172.432C365.175 172.787 365.912 173.309 366.659 174L369.627 171.032C368.787 170.136 367.779 169.427 366.603 168.904C365.427 168.381 363.99 168.12 362.291 168.12C361.246 168.12 360.247 168.269 359.295 168.568C358.362 168.867 357.54 169.296 356.831 169.856C356.122 170.416 355.552 171.097 355.123 171.9C354.712 172.684 354.507 173.58 354.507 174.588C354.507 175.316 354.638 175.951 354.899 176.492C355.16 177.033 355.515 177.519 355.963 177.948C356.411 178.359 356.924 178.723 357.503 179.04C358.082 179.339 358.688 179.619 359.323 179.88C359.976 180.141 360.518 180.384 360.947 180.608C361.376 180.813 361.712 181.019 361.955 181.224C362.216 181.411 362.394 181.607 362.487 181.812C362.599 181.999 362.655 182.213 362.655 182.456C362.655 183.072 362.375 183.567 361.815 183.94C361.255 184.313 360.536 184.5 359.659 184.5C358.539 184.5 357.54 184.285 356.663 183.856C355.786 183.408 354.955 182.764 354.171 181.924L350.923 184.668C352.79 187.076 355.636 188.28 359.463 188.28ZM373.456 171.34H377.936L378.972 167.56H374.492L373.456 171.34ZM369.088 188H373.344L377.376 172.992H373.12L369.088 188ZM377.369 188H381.625L383.893 179.572C384.136 178.676 384.528 177.957 385.069 177.416C385.61 176.856 386.301 176.576 387.141 176.576C387.794 176.576 388.298 176.735 388.653 177.052C389.026 177.369 389.213 177.827 389.213 178.424C389.213 178.611 389.194 178.835 389.157 179.096C389.12 179.339 389.073 179.563 389.017 179.768L386.805 188H391.061L393.217 179.936C393.348 179.451 393.46 178.965 393.553 178.48C393.665 177.976 393.721 177.509 393.721 177.08C393.721 175.717 393.32 174.653 392.517 173.888C391.714 173.104 390.641 172.712 389.297 172.712C388.457 172.712 387.701 172.899 387.029 173.272C386.357 173.645 385.75 174.075 385.209 174.56L385.629 172.992H381.373L377.369 188ZM402.965 188.336C404.234 188.336 405.308 188.131 406.185 187.72C407.062 187.291 407.893 186.721 408.677 186.012L406.493 183.24C405.933 183.725 405.392 184.099 404.869 184.36C404.346 184.603 403.758 184.724 403.105 184.724C402.265 184.724 401.565 184.444 401.005 183.884C400.445 183.305 400.165 182.531 400.165 181.56C400.165 180.869 400.286 180.207 400.529 179.572C400.772 178.937 401.089 178.387 401.481 177.92C401.873 177.435 402.33 177.052 402.853 176.772C403.376 176.492 403.917 176.352 404.477 176.352C405.317 176.352 405.97 176.539 406.437 176.912C406.922 177.267 407.352 177.733 407.725 178.312L410.973 176.016C410.712 175.568 410.394 175.148 410.021 174.756C409.666 174.345 409.237 173.991 408.733 173.692C408.248 173.393 407.678 173.16 407.025 172.992C406.372 172.805 405.634 172.712 404.813 172.712C403.618 172.712 402.48 172.945 401.397 173.412C400.333 173.879 399.4 174.513 398.597 175.316C397.794 176.1 397.15 177.033 396.665 178.116C396.198 179.18 395.965 180.328 395.965 181.56C395.965 182.587 396.133 183.52 396.469 184.36C396.824 185.181 397.309 185.891 397.925 186.488C398.541 187.067 399.278 187.524 400.137 187.86C400.996 188.177 401.938 188.336 402.965 188.336ZM415.609 181.98H425.885C426.128 181.401 426.314 180.823 426.445 180.244C426.576 179.665 426.641 179.105 426.641 178.564C426.641 177.724 426.501 176.949 426.221 176.24C425.96 175.531 425.568 174.915 425.045 174.392C424.522 173.869 423.878 173.459 423.113 173.16C422.348 172.861 421.48 172.712 420.509 172.712C419.165 172.712 417.942 172.973 416.841 173.496C415.758 174.019 414.825 174.709 414.041 175.568C413.257 176.408 412.65 177.369 412.221 178.452C411.81 179.516 411.605 180.589 411.605 181.672C411.605 182.717 411.764 183.651 412.081 184.472C412.398 185.293 412.856 185.993 413.453 186.572C414.05 187.132 414.778 187.571 415.637 187.888C416.496 188.187 417.466 188.336 418.549 188.336C419.837 188.336 420.948 188.149 421.881 187.776C422.833 187.384 423.645 186.908 424.317 186.348L422.357 183.716C421.741 184.145 421.172 184.453 420.649 184.64C420.126 184.827 419.585 184.92 419.025 184.92C417.905 184.92 417.074 184.659 416.533 184.136C415.992 183.595 415.684 182.876 415.609 181.98ZM415.973 179.32C416.328 178.368 416.869 177.603 417.597 177.024C418.344 176.427 419.202 176.128 420.173 176.128C421.05 176.128 421.676 176.343 422.049 176.772C422.441 177.201 422.637 177.724 422.637 178.34C422.637 178.676 422.59 179.003 422.497 179.32H415.973ZM438.519 188H442.775L448.067 168.26H445.127L438.967 169.968L439.023 173.636L442.579 172.824L438.519 188ZM454.804 188.336C456.167 188.336 457.427 188.084 458.584 187.58C459.741 187.057 460.777 186.339 461.692 185.424C462.961 184.155 463.932 182.671 464.604 180.972C465.276 179.273 465.612 177.537 465.612 175.764C465.612 174.327 465.435 173.141 465.08 172.208C464.744 171.275 464.249 170.481 463.596 169.828C462.999 169.231 462.233 168.792 461.3 168.512C460.367 168.213 459.424 168.064 458.472 168.064C457.333 168.064 456.269 168.269 455.28 168.68C454.291 169.072 453.432 169.623 452.704 170.332C451.976 171.023 451.397 171.844 450.968 172.796C450.557 173.729 450.352 174.728 450.352 175.792C450.352 176.707 450.511 177.509 450.828 178.2C451.145 178.891 451.575 179.469 452.116 179.936C452.657 180.403 453.283 180.757 453.992 181C454.72 181.224 455.495 181.336 456.316 181.336C457.249 181.336 458.117 181.177 458.92 180.86C459.723 180.524 460.339 180.141 460.768 179.712C460.357 180.963 459.723 182.017 458.864 182.876C457.8 183.94 456.521 184.472 455.028 184.472C454.188 184.472 453.441 184.323 452.788 184.024C452.153 183.707 451.519 183.277 450.884 182.736L448.364 185.844C449.26 186.647 450.249 187.263 451.332 187.692C452.415 188.121 453.572 188.336 454.804 188.336ZM457.688 177.864C456.811 177.864 456.092 177.64 455.532 177.192C454.972 176.744 454.692 176.091 454.692 175.232C454.692 174.765 454.776 174.317 454.944 173.888C455.131 173.459 455.392 173.085 455.728 172.768C456.064 172.432 456.465 172.171 456.932 171.984C457.399 171.797 457.921 171.704 458.5 171.704C459.471 171.704 460.236 171.984 460.796 172.544C461.02 172.768 461.188 173.048 461.3 173.384C461.431 173.701 461.496 174.037 461.496 174.392C461.496 174.859 461.403 175.307 461.216 175.736C461.048 176.147 460.796 176.511 460.46 176.828C460.124 177.145 459.723 177.397 459.256 177.584C458.789 177.771 458.267 177.864 457.688 177.864ZM474.392 188.28C475.68 188.28 476.828 188.121 477.836 187.804C478.844 187.468 479.694 187.029 480.384 186.488C481.094 185.947 481.626 185.331 481.98 184.64C482.354 183.931 482.54 183.203 482.54 182.456C482.54 181.411 482.26 180.543 481.7 179.852C481.159 179.143 480.44 178.62 479.544 178.284C480.888 177.967 481.934 177.379 482.68 176.52C483.446 175.661 483.828 174.616 483.828 173.384C483.828 172.619 483.66 171.919 483.324 171.284C482.988 170.631 482.512 170.071 481.896 169.604C481.28 169.137 480.543 168.773 479.684 168.512C478.844 168.251 477.911 168.12 476.884 168.12C475.652 168.12 474.579 168.288 473.664 168.624C472.75 168.96 471.984 169.389 471.368 169.912C470.752 170.435 470.286 171.023 469.968 171.676C469.67 172.329 469.52 172.973 469.52 173.608C469.52 174.392 469.716 175.12 470.108 175.792C470.519 176.464 471.116 176.996 471.9 177.388C471.191 177.556 470.528 177.789 469.912 178.088C469.296 178.387 468.764 178.76 468.316 179.208C467.868 179.637 467.514 180.151 467.252 180.748C467.01 181.327 466.888 181.989 466.888 182.736C466.888 183.576 467.084 184.341 467.476 185.032C467.887 185.704 468.438 186.283 469.128 186.768C469.819 187.253 470.612 187.627 471.508 187.888C472.423 188.149 473.384 188.28 474.392 188.28ZM476.576 176.352C475.624 176.352 474.868 176.137 474.308 175.708C473.748 175.26 473.478 174.709 473.496 174.056C473.515 173.365 473.823 172.796 474.42 172.348C475.036 171.881 475.792 171.648 476.688 171.648C477.715 171.648 478.49 171.872 479.012 172.32C479.554 172.768 479.815 173.3 479.796 173.916C479.778 174.607 479.46 175.185 478.844 175.652C478.247 176.119 477.491 176.352 476.576 176.352ZM474.616 184.808C473.552 184.808 472.694 184.584 472.04 184.136C471.387 183.669 471.07 183.081 471.088 182.372C471.107 181.644 471.452 181.037 472.124 180.552C472.815 180.067 473.702 179.824 474.784 179.824C475.867 179.824 476.735 180.048 477.388 180.496C478.042 180.944 478.359 181.523 478.34 182.232C478.322 183.016 477.958 183.641 477.248 184.108C476.558 184.575 475.68 184.808 474.616 184.808ZM491.335 188.336C492.698 188.336 493.958 188.084 495.115 187.58C496.273 187.057 497.309 186.339 498.223 185.424C499.493 184.155 500.463 182.671 501.135 180.972C501.807 179.273 502.143 177.537 502.143 175.764C502.143 174.327 501.966 173.141 501.611 172.208C501.275 171.275 500.781 170.481 500.127 169.828C499.53 169.231 498.765 168.792 497.831 168.512C496.898 168.213 495.955 168.064 495.003 168.064C493.865 168.064 492.801 168.269 491.811 168.68C490.822 169.072 489.963 169.623 489.235 170.332C488.507 171.023 487.929 171.844 487.499 172.796C487.089 173.729 486.883 174.728 486.883 175.792C486.883 176.707 487.042 177.509 487.359 178.2C487.677 178.891 488.106 179.469 488.647 179.936C489.189 180.403 489.814 180.757 490.523 181C491.251 181.224 492.026 181.336 492.847 181.336C493.781 181.336 494.649 181.177 495.451 180.86C496.254 180.524 496.87 180.141 497.299 179.712C496.889 180.963 496.254 182.017 495.395 182.876C494.331 183.94 493.053 184.472 491.559 184.472C490.719 184.472 489.973 184.323 489.319 184.024C488.685 183.707 488.05 183.277 487.415 182.736L484.895 185.844C485.791 186.647 486.781 187.263 487.863 187.692C488.946 188.121 490.103 188.336 491.335 188.336ZM494.219 177.864C493.342 177.864 492.623 177.64 492.063 177.192C491.503 176.744 491.223 176.091 491.223 175.232C491.223 174.765 491.307 174.317 491.475 173.888C491.662 173.459 491.923 173.085 492.259 172.768C492.595 172.432 492.997 172.171 493.463 171.984C493.93 171.797 494.453 171.704 495.031 171.704C496.002 171.704 496.767 171.984 497.327 172.544C497.551 172.768 497.719 173.048 497.831 173.384C497.962 173.701 498.027 174.037 498.027 174.392C498.027 174.859 497.934 175.307 497.747 175.736C497.579 176.147 497.327 176.511 496.991 176.828C496.655 177.145 496.254 177.397 495.787 177.584C495.321 177.771 494.798 177.864 494.219 177.864Z" fill="#06207C"></path>
    <path d="M250.494 135.522C249.063 135.522 248.039 135.309 247.42 134.884C246.84 134.459 246.473 133.898 246.318 133.202C246.163 132.506 246.086 131.791 246.086 131.056V99.388C246.086 98.6147 246.163 97.8993 246.318 97.242C246.473 96.5847 246.859 96.0433 247.478 95.618C248.097 95.1927 249.121 94.98 250.552 94.98C251.983 94.98 252.988 95.1927 253.568 95.618C254.187 96.0433 254.554 96.5847 254.67 97.242C254.825 97.8993 254.902 98.634 254.902 99.446V131.114C254.902 131.849 254.825 132.564 254.67 133.26C254.554 133.917 254.187 134.459 253.568 134.884C252.949 135.309 251.925 135.522 250.494 135.522ZM225.902 135.522C224.471 135.522 223.447 135.309 222.828 134.884C222.209 134.459 221.823 133.898 221.668 133.202C221.552 132.506 221.494 131.791 221.494 131.056V99.388C221.494 98.6147 221.571 97.8993 221.726 97.242C221.881 96.5847 222.248 96.0433 222.828 95.618C223.447 95.1927 224.491 94.98 225.96 94.98C227.391 94.98 228.396 95.1927 228.976 95.618C229.595 96.0433 229.962 96.5847 230.078 97.242C230.233 97.8993 230.31 98.634 230.31 99.446V131.114C230.31 131.849 230.233 132.564 230.078 133.26C229.962 133.917 229.595 134.459 228.976 134.884C228.357 135.309 227.333 135.522 225.902 135.522ZM228.918 118.934V111.278H247.014V118.934H228.918ZM278.688 136.102C275.904 136.102 273.275 135.58 270.8 134.536C268.364 133.453 266.218 131.984 264.362 130.128C262.545 128.233 261.095 126.049 260.012 123.574C258.968 121.099 258.446 118.431 258.446 115.57C258.446 112.67 258.949 109.963 259.954 107.45C260.998 104.898 262.41 102.655 264.188 100.722C266.006 98.7887 268.113 97.2807 270.51 96.198C272.908 95.1153 275.479 94.574 278.224 94.574C281.008 94.574 283.618 95.1153 286.054 96.198C288.529 97.242 290.675 98.7113 292.492 100.606C294.31 102.501 295.74 104.705 296.784 107.218C297.867 109.731 298.408 112.457 298.408 115.396C298.408 118.219 297.886 120.887 296.842 123.4C295.837 125.875 294.426 128.079 292.608 130.012C290.791 131.907 288.684 133.395 286.286 134.478C283.928 135.561 281.395 136.102 278.688 136.102ZM278.398 127.286C279.945 127.286 281.395 126.977 282.748 126.358C284.102 125.739 285.281 124.908 286.286 123.864C287.33 122.781 288.123 121.525 288.664 120.094C289.244 118.625 289.534 117.039 289.534 115.338C289.534 113.714 289.244 112.187 288.664 110.756C288.084 109.287 287.272 108.011 286.228 106.928C285.223 105.807 284.044 104.937 282.69 104.318C281.376 103.699 279.945 103.39 278.398 103.39C276.89 103.39 275.46 103.699 274.106 104.318C272.792 104.937 271.612 105.807 270.568 106.928C269.563 108.011 268.751 109.287 268.132 110.756C267.552 112.187 267.262 113.733 267.262 115.396C267.262 117.02 267.552 118.567 268.132 120.036C268.751 121.467 269.563 122.723 270.568 123.806C271.612 124.889 272.792 125.739 274.106 126.358C275.421 126.977 276.852 127.286 278.398 127.286ZM315.148 136.102C313.098 136.102 311.3 135.851 309.754 135.348C308.246 134.845 306.95 134.246 305.868 133.55C304.824 132.815 303.992 132.1 303.374 131.404C302.755 130.708 302.33 130.186 302.098 129.838C301.44 128.987 301.034 128.253 300.88 127.634C300.725 126.977 300.802 126.319 301.112 125.662C301.46 125.005 302.04 124.289 302.852 123.516C303.664 122.82 304.418 122.453 305.114 122.414C305.848 122.337 306.564 122.511 307.26 122.936C307.956 123.361 308.632 123.961 309.29 124.734C310.218 125.855 311.126 126.648 312.016 127.112C312.944 127.537 313.91 127.75 314.916 127.75C316.192 127.75 317.274 127.595 318.164 127.286C319.053 126.977 319.73 126.493 320.194 125.836C320.658 125.14 320.89 124.27 320.89 123.226C320.89 122.375 320.561 121.699 319.904 121.196C319.285 120.655 318.434 120.191 317.352 119.804C316.308 119.417 315.128 119.05 313.814 118.702C312.538 118.315 311.262 117.871 309.986 117.368C309.096 117.059 308.246 116.672 307.434 116.208C306.622 115.744 305.848 115.222 305.114 114.642C304.379 114.062 303.741 113.366 303.2 112.554C302.697 111.742 302.291 110.814 301.982 109.77C301.711 108.726 301.576 107.527 301.576 106.174C301.576 103.893 302.136 101.863 303.258 100.084C304.379 98.3053 305.926 96.9133 307.898 95.908C309.908 94.864 312.209 94.342 314.8 94.342C316.54 94.342 318.048 94.4967 319.324 94.806C320.638 95.1153 321.74 95.4827 322.63 95.908C323.519 96.3333 324.215 96.7587 324.718 97.184C325.259 97.5707 325.626 97.88 325.82 98.112C326.902 99.1173 327.502 99.9873 327.618 100.722C327.734 101.418 327.328 102.404 326.4 103.68C325.433 105.033 324.466 105.787 323.5 105.942C322.572 106.097 321.508 105.768 320.31 104.956C319.846 104.531 319.382 104.144 318.918 103.796C318.454 103.448 317.893 103.177 317.236 102.984C316.617 102.752 315.786 102.636 314.742 102.636C314.123 102.636 313.543 102.733 313.002 102.926C312.46 103.081 311.996 103.313 311.61 103.622C311.223 103.931 310.914 104.318 310.682 104.782C310.45 105.207 310.334 105.691 310.334 106.232C310.334 107.121 310.624 107.837 311.204 108.378C311.822 108.919 312.615 109.364 313.582 109.712C314.587 110.021 315.689 110.331 316.888 110.64C318.125 110.911 319.382 111.239 320.658 111.626C321.818 112.013 322.939 112.496 324.022 113.076C325.104 113.617 326.071 114.313 326.922 115.164C327.772 116.015 328.449 117.078 328.952 118.354C329.493 119.63 329.764 121.196 329.764 123.052C329.764 125.372 329.319 127.363 328.43 129.026C327.54 130.689 326.361 132.042 324.892 133.086C323.422 134.13 321.837 134.884 320.136 135.348C318.434 135.851 316.772 136.102 315.148 136.102ZM338.168 135.522C336.737 135.522 335.712 135.309 335.094 134.884C334.514 134.459 334.146 133.898 333.992 133.202C333.837 132.506 333.76 131.791 333.76 131.056V99.388C333.76 98.6533 333.837 97.9573 333.992 97.3C334.146 96.604 334.533 96.0433 335.152 95.618C335.77 95.1927 336.795 94.98 338.226 94.98H350.116C351.74 94.98 353.364 95.27 354.988 95.85C356.65 96.43 358.178 97.3387 359.57 98.576C361 99.7747 362.141 101.263 362.992 103.042C363.881 104.821 364.326 106.909 364.326 109.306C364.326 111.665 363.881 113.733 362.992 115.512C362.141 117.291 361 118.779 359.57 119.978C358.178 121.138 356.65 122.027 354.988 122.646C353.325 123.226 351.682 123.516 350.058 123.516H342.634V131.114C342.634 131.849 342.556 132.564 342.402 133.26C342.247 133.917 341.86 134.459 341.242 134.884C340.623 135.309 339.598 135.522 338.168 135.522ZM342.634 114.7H350.116C350.966 114.7 351.798 114.526 352.61 114.178C353.46 113.791 354.156 113.192 354.698 112.38C355.278 111.568 355.568 110.524 355.568 109.248C355.568 108.165 355.336 107.218 354.872 106.406C354.408 105.594 353.75 104.956 352.9 104.492C352.088 104.028 351.14 103.796 350.058 103.796H342.634V114.7ZM372.369 135.522C370.977 135.522 369.972 135.329 369.353 134.942C368.735 134.517 368.348 133.956 368.193 133.26C368.077 132.564 368.019 131.849 368.019 131.114V99.388C368.019 98.6147 368.077 97.8993 368.193 97.242C368.348 96.5847 368.735 96.0433 369.353 95.618C369.972 95.1927 370.997 94.98 372.427 94.98C373.897 94.98 374.921 95.1927 375.501 95.618C376.12 96.0433 376.487 96.5847 376.603 97.242C376.758 97.8993 376.835 98.634 376.835 99.446V131.172C376.835 131.907 376.758 132.622 376.603 133.318C376.449 133.975 376.062 134.517 375.443 134.942C374.863 135.329 373.839 135.522 372.369 135.522ZM411.776 94.922C412.433 94.922 413.032 94.98 413.574 95.096C414.115 95.212 414.56 95.5407 414.908 96.082C415.294 96.5847 415.488 97.474 415.488 98.75C415.488 99.9487 415.294 100.819 414.908 101.36C414.56 101.901 414.096 102.23 413.516 102.346C412.936 102.462 412.317 102.52 411.66 102.52H402.322V131.23C402.322 131.965 402.244 132.661 402.09 133.318C401.974 133.975 401.606 134.517 400.988 134.942C400.408 135.329 399.402 135.522 397.972 135.522C396.58 135.522 395.574 135.329 394.956 134.942C394.337 134.517 393.97 133.975 393.854 133.318C393.738 132.622 393.68 131.907 393.68 131.172V102.52H384.226C383.607 102.52 383.008 102.462 382.428 102.346C381.848 102.191 381.384 101.863 381.036 101.36C380.688 100.819 380.514 99.9293 380.514 98.692C380.514 97.4547 380.688 96.5847 381.036 96.082C381.384 95.5407 381.848 95.212 382.428 95.096C383.008 94.98 383.607 94.922 384.226 94.922H411.776ZM446.668 129.374C447.132 130.341 447.383 131.172 447.422 131.868C447.46 132.525 447.248 133.125 446.784 133.666C446.358 134.169 445.643 134.671 444.638 135.174C443.091 135.909 441.892 136.121 441.042 135.812C440.191 135.541 439.398 134.633 438.664 133.086L427.296 109.306L415.986 133.086C415.212 134.594 414.4 135.483 413.55 135.754C412.738 136.063 411.558 135.851 410.012 135.116C409.006 134.652 408.272 134.169 407.808 133.666C407.382 133.125 407.189 132.506 407.228 131.81C407.266 131.075 407.537 130.225 408.04 129.258L423.294 97.532C423.68 96.7587 424.241 96.14 424.976 95.676C425.749 95.212 426.542 94.98 427.354 94.98C427.934 94.98 428.475 95.096 428.978 95.328C429.48 95.5213 429.925 95.8113 430.312 96.198C430.737 96.5847 431.085 97.0487 431.356 97.59L446.668 129.374ZM417.552 126.068L421.148 118.586H433.502L437.098 126.068H417.552ZM455.483 135.522C454.091 135.522 453.085 135.329 452.467 134.942C451.848 134.517 451.461 133.956 451.307 133.26C451.152 132.564 451.075 131.849 451.075 131.114V99.388C451.075 98.6147 451.133 97.8993 451.249 97.242C451.403 96.5847 451.79 96.0433 452.409 95.618C453.027 95.1927 454.052 94.98 455.483 94.98C456.952 94.98 457.977 95.1927 458.557 95.618C459.175 96.0433 459.543 96.5847 459.659 97.242C459.813 97.8993 459.891 98.6147 459.891 99.388V127.866H475.783C476.44 127.866 477.059 127.924 477.639 128.04C478.219 128.156 478.683 128.485 479.031 129.026C479.417 129.567 479.611 130.457 479.611 131.694C479.611 132.893 479.417 133.782 479.031 134.362C478.644 134.903 478.161 135.232 477.581 135.348C477.039 135.464 476.44 135.522 475.783 135.522H455.483Z" fill="#DD1414"></path>
    <path d="M217.34 73.624C215 73.624 213.336 73.286 212.348 72.61C211.36 71.882 210.762 70.972 210.554 69.88C210.346 68.736 210.242 67.592 210.242 66.448V26.2C210.242 25.056 210.346 23.938 210.554 22.846C210.762 21.754 211.36 20.87 212.348 20.194C213.336 19.466 215.026 19.102 217.418 19.102C219.81 19.102 221.474 19.466 222.41 20.194C223.398 20.87 223.996 21.754 224.204 22.846C224.412 23.938 224.516 25.082 224.516 26.278V66.526C224.516 67.67 224.412 68.788 224.204 69.88C223.996 70.972 223.398 71.882 222.41 72.61C221.422 73.286 219.732 73.624 217.34 73.624ZM185.282 73.624C182.942 73.624 181.278 73.286 180.29 72.61C179.302 71.882 178.704 70.972 178.496 69.88C178.288 68.736 178.184 67.592 178.184 66.448V26.2C178.184 25.056 178.288 23.938 178.496 22.846C178.704 21.754 179.302 20.87 180.29 20.194C181.278 19.466 182.968 19.102 185.36 19.102C187.752 19.102 189.416 19.466 190.352 20.194C191.34 20.87 191.938 21.754 192.146 22.846C192.354 23.938 192.458 25.082 192.458 26.278V66.526C192.458 67.67 192.354 68.788 192.146 69.88C191.938 70.972 191.34 71.882 190.352 72.61C189.364 73.286 187.674 73.624 185.282 73.624ZM191.21 52.486V40.318H211.49V52.486H191.21ZM263.184 74.482C261 74.482 259.024 74.17 257.256 73.546C255.488 72.922 253.98 72.194 252.732 71.362C251.536 70.53 250.6 69.802 249.924 69.178C249.3 68.554 248.988 68.242 248.988 68.242C248.312 67.514 247.688 66.786 247.116 66.058C246.544 65.278 246.258 64.394 246.258 63.406C246.258 62.574 246.466 61.742 246.882 60.91C247.35 60.026 248.052 59.09 248.988 58.102C249.872 57.166 250.73 56.464 251.562 55.996C252.394 55.528 253.226 55.294 254.058 55.294C255.098 55.294 256.034 55.606 256.866 56.23C257.75 56.854 258.53 57.53 259.206 58.258C259.414 58.414 259.7 58.648 260.064 58.96C260.428 59.22 260.896 59.48 261.468 59.74C262.04 59.948 262.742 60.052 263.574 60.052C264.406 60.052 265.16 59.922 265.836 59.662C266.564 59.35 267.162 58.934 267.63 58.414C268.15 57.842 268.54 57.192 268.8 56.464C269.06 55.684 269.19 54.826 269.19 53.89V26.824C269.19 25.628 269.294 24.432 269.502 23.236C269.762 22.04 270.386 21.052 271.374 20.272C272.414 19.492 274.13 19.102 276.522 19.102C278.81 19.102 280.422 19.466 281.358 20.194C282.346 20.922 282.944 21.858 283.152 23.002C283.412 24.094 283.542 25.212 283.542 26.356V54.436C283.542 57.192 283.022 59.792 281.982 62.236C280.942 64.628 279.486 66.76 277.614 68.632C275.742 70.452 273.558 71.882 271.062 72.922C268.618 73.962 265.992 74.482 263.184 74.482ZM314.165 73.624C311.929 73.624 310.317 73.286 309.329 72.61C308.341 71.934 307.717 71.05 307.457 69.958C307.197 68.866 307.067 67.696 307.067 66.448V26.122C307.067 24.978 307.171 23.86 307.379 22.768C307.587 21.676 308.185 20.792 309.173 20.116C310.161 19.388 311.851 19.05 314.243 19.102H327.659C331.351 19.102 334.835 19.804 338.111 21.208C341.387 22.612 344.273 24.562 346.769 27.058C349.317 29.502 351.293 32.362 352.697 35.638C354.153 38.914 354.881 42.398 354.881 46.09C354.881 49.886 354.153 53.448 352.697 56.776C351.293 60.104 349.317 63.042 346.769 65.59C344.273 68.086 341.361 70.062 338.033 71.518C334.757 72.922 331.221 73.624 327.425 73.624H314.165ZM321.341 59.35H327.659C329.999 59.35 332.157 58.778 334.133 57.634C336.109 56.438 337.669 54.878 338.813 52.954C340.009 50.978 340.607 48.794 340.607 46.402C340.607 44.01 340.009 41.826 338.813 39.85C337.669 37.874 336.109 36.314 334.133 35.17C332.157 33.974 329.973 33.376 327.581 33.376H321.341V59.35ZM384.464 74.56C380.668 74.56 377.106 73.858 373.778 72.454C370.502 70.998 367.616 68.996 365.12 66.448C362.624 63.9 360.648 60.962 359.192 57.634C357.788 54.254 357.086 50.666 357.086 46.87C357.086 42.918 357.762 39.226 359.114 35.794C360.518 32.362 362.442 29.346 364.886 26.746C367.33 24.146 370.164 22.118 373.388 20.662C376.664 19.206 380.148 18.478 383.84 18.478C387.636 18.478 391.172 19.206 394.448 20.662C397.776 22.066 400.688 24.042 403.184 26.59C405.68 29.138 407.63 32.128 409.034 35.56C410.438 38.94 411.14 42.606 411.14 46.558C411.14 50.406 410.438 54.02 409.034 57.4C407.682 60.78 405.758 63.77 403.262 66.37C400.818 68.918 397.984 70.92 394.76 72.376C391.588 73.832 388.156 74.56 384.464 74.56ZM384.074 60.286C385.842 60.286 387.506 59.948 389.066 59.272C390.626 58.544 391.978 57.582 393.122 56.386C394.318 55.138 395.228 53.682 395.852 52.018C396.528 50.302 396.866 48.482 396.866 46.558C396.866 44.634 396.528 42.84 395.852 41.176C395.176 39.512 394.24 38.056 393.044 36.808C391.9 35.508 390.548 34.52 388.988 33.844C387.48 33.116 385.868 32.752 384.152 32.752C382.384 32.752 380.72 33.116 379.16 33.844C377.652 34.52 376.3 35.508 375.104 36.808C373.96 38.056 373.05 39.512 372.374 41.176C371.698 42.84 371.36 44.634 371.36 46.558C371.36 48.43 371.698 50.198 372.374 51.862C373.05 53.526 373.96 55.008 375.104 56.308C376.3 57.556 377.652 58.544 379.16 59.272C380.72 59.948 382.358 60.286 384.074 60.286ZM433.347 74.482C430.175 74.482 427.471 74.092 425.235 73.312C423.051 72.532 421.257 71.622 419.853 70.582C418.449 69.49 417.383 68.502 416.655 67.618C415.927 66.734 415.485 66.188 415.329 65.98C414.289 64.68 413.639 63.51 413.379 62.47C413.171 61.43 413.327 60.39 413.847 59.35C414.419 58.31 415.355 57.166 416.655 55.918C417.851 54.774 419.021 54.15 420.165 54.046C421.309 53.89 422.427 54.124 423.519 54.748C424.663 55.372 425.755 56.282 426.795 57.478C428.043 58.882 429.109 59.844 429.993 60.364C430.877 60.832 431.891 61.066 433.035 61.066C434.439 61.066 435.583 60.91 436.467 60.598C437.351 60.234 438.001 59.714 438.417 59.038C438.833 58.31 439.041 57.4 439.041 56.308C439.041 55.424 438.599 54.748 437.715 54.28C436.831 53.76 435.661 53.318 434.205 52.954C432.801 52.59 431.215 52.2 429.447 51.784C427.679 51.316 425.937 50.718 424.221 49.99C423.181 49.574 422.167 49.054 421.179 48.43C420.191 47.806 419.255 47.104 418.371 46.324C417.539 45.492 416.811 44.53 416.187 43.438C415.563 42.294 415.069 41.02 414.705 39.616C414.393 38.212 414.237 36.626 414.237 34.858C414.237 31.686 415.017 28.852 416.577 26.356C418.189 23.86 420.373 21.884 423.129 20.428C425.937 18.972 429.109 18.244 432.645 18.244C435.193 18.244 437.377 18.452 439.197 18.868C441.017 19.284 442.499 19.778 443.643 20.35C444.839 20.922 445.749 21.468 446.373 21.988C446.997 22.456 447.387 22.768 447.543 22.924C449.259 24.484 450.195 25.836 450.351 26.98C450.507 28.072 449.883 29.658 448.479 31.738C446.919 33.974 445.385 35.248 443.877 35.56C442.369 35.82 440.627 35.326 438.651 34.078C438.235 33.766 437.819 33.428 437.403 33.064C436.987 32.648 436.415 32.31 435.687 32.05C435.011 31.738 433.971 31.582 432.567 31.582C432.047 31.582 431.527 31.686 431.007 31.894C430.487 32.05 430.045 32.284 429.681 32.596C429.317 32.856 429.005 33.194 428.745 33.61C428.537 34.026 428.433 34.468 428.433 34.936C428.433 36.028 428.849 36.886 429.681 37.51C430.513 38.082 431.605 38.524 432.957 38.836C434.361 39.148 435.895 39.46 437.559 39.772C439.223 40.084 440.913 40.5 442.629 41.02C444.033 41.488 445.385 42.086 446.685 42.814C447.985 43.542 449.129 44.478 450.117 45.622C451.105 46.766 451.885 48.196 452.457 49.912C453.081 51.576 453.393 53.63 453.393 56.074C453.393 59.454 452.743 62.34 451.443 64.732C450.143 67.072 448.453 68.97 446.373 70.426C444.345 71.83 442.161 72.844 439.821 73.468C437.533 74.144 435.375 74.482 433.347 74.482ZM495.824 73.624C493.484 73.624 491.82 73.286 490.832 72.61C489.844 71.882 489.246 70.972 489.038 69.88C488.83 68.736 488.726 67.592 488.726 66.448V26.2C488.726 25.056 488.83 23.938 489.038 22.846C489.246 21.754 489.844 20.87 490.832 20.194C491.82 19.466 493.51 19.102 495.902 19.102C498.294 19.102 499.958 19.466 500.894 20.194C501.882 20.87 502.48 21.754 502.688 22.846C502.896 23.938 503 25.082 503 26.278V66.526C503 67.67 502.896 68.788 502.688 69.88C502.48 70.972 501.882 71.882 500.894 72.61C499.906 73.286 498.216 73.624 495.824 73.624ZM463.766 73.624C461.426 73.624 459.762 73.286 458.774 72.61C457.786 71.882 457.188 70.972 456.98 69.88C456.772 68.736 456.668 67.592 456.668 66.448V26.2C456.668 25.056 456.772 23.938 456.98 22.846C457.188 21.754 457.786 20.87 458.774 20.194C459.762 19.466 461.452 19.102 463.844 19.102C466.236 19.102 467.9 19.466 468.836 20.194C469.824 20.87 470.422 21.754 470.63 22.846C470.838 23.938 470.942 25.082 470.942 26.278V66.526C470.942 67.67 470.838 68.788 470.63 69.88C470.422 70.972 469.824 71.882 468.836 72.61C467.848 73.286 466.158 73.624 463.766 73.624ZM469.694 52.486V40.318H489.974V52.486H469.694ZM514.497 73.702C512.157 73.702 510.493 73.364 509.505 72.688C508.517 71.96 507.919 71.05 507.711 69.958C507.503 68.814 507.399 67.67 507.399 66.526V26.2C507.399 25.056 507.503 23.938 507.711 22.846C507.919 21.754 508.517 20.87 509.505 20.194C510.493 19.466 512.183 19.102 514.575 19.102C516.967 19.102 518.631 19.466 519.567 20.194C520.555 20.87 521.153 21.754 521.361 22.846C521.569 23.938 521.673 25.082 521.673 26.278V66.604C521.673 67.748 521.569 68.866 521.361 69.958C521.153 71.05 520.555 71.96 519.567 72.688C518.579 73.364 516.889 73.702 514.497 73.702Z" fill="#06207C"></path>
    <rect width="148" height="148" rx="74" fill="#06207C"></rect>
    <path d="M98.9331 64.9703H98.8929V48.8792H119.959V90.8009C119.959 97.9611 118.534 104.14 115.685 109.337C112.835 114.533 108.926 118.479 103.959 121.174C98.9908 123.869 93.4647 125.216 87.3803 125.216C81.5269 125.216 76.1163 123.753 71.1486 120.827C66.1809 117.902 62.2337 113.956 59.307 108.99C56.3803 104.024 54.917 98.6155 54.917 92.7642H75.943C75.943 96.3058 76.9635 99.2699 79.0045 101.657C81.0455 104.043 83.7989 105.237 87.2648 105.237C90.9616 105.237 93.8306 104.063 95.8716 101.714C97.9126 99.3662 98.9331 95.9208 98.9331 91.3783V64.9703Z" fill="white"></path>
    <path fill-rule="evenodd" clip-rule="evenodd" d="M28.4331 44.9841H94.6436V66.4051H28.4331V44.9841Z" fill="#DD1414"></path>
    <path fill-rule="evenodd" clip-rule="evenodd" d="M72.248 22.5896L72.248 88.8001H50.827V22.5896H72.248Z" fill="#DD1414"></path>
</svg>
                    